<svg width="25" height="25" viewBox="0 0 25 25" fill="none" xmlns="http://www.w3.org/2000/svg">
<path d="M20.251 12.7056V10.9986C20.251 6.55663 16.772 2.83763 12.496 2.70863C10.292 2.65763 8.24498 3.44463 6.67998 4.96463C5.11298 6.48463 4.25098 8.52363 4.25098 10.7056V12.7056C3.14798 12.7056 2.25098 13.6026 2.25098 14.7056V18.7056C2.25098 19.8086 3.14798 20.7056 4.25098 20.7056H6.25098V10.7056C6.25098 9.06863 6.89698 7.53963 8.07198 6.39963C9.24598 5.25963 10.807 4.66063 12.435 4.70863C15.643 4.80463 18.251 7.62663 18.251 10.9986V20.7056H20.251C21.354 20.7056 22.251 19.8086 22.251 18.7056V14.7056C22.251 13.6026 21.354 12.7056 20.251 12.7056Z" fill="white"/>
<path d="M7.25098 12.7057H9.25098V20.7057H7.25098V12.7057ZM15.251 12.7057H17.251V20.7057H15.251V12.7057Z" fill="white"/>
</svg>
