<svg width="33" height="25" viewBox="0 0 33 25" fill="none" xmlns="http://www.w3.org/2000/svg">
<path d="M30.9375 20.75C30.9375 21.297 30.7202 21.8216 30.3334 22.2084C29.9466 22.5952 29.422 22.8125 28.875 22.8125H4.125C3.57799 22.8125 3.05339 22.5952 2.66659 22.2084C2.2798 21.8216 2.0625 21.297 2.0625 20.75V8.375C2.0625 7.82799 2.2798 7.30339 2.66659 6.91659C3.05339 6.5298 3.57799 6.3125 4.125 6.3125H6.54225C8.18243 6.3116 9.75514 5.65952 10.9147 4.49956L12.6266 2.79181C13.0123 2.406 13.5352 2.18871 14.0807 2.1875H18.9152C19.4622 2.18762 19.9867 2.40499 20.3734 2.79181L22.0811 4.49956C22.6558 5.07441 23.3381 5.5304 24.0891 5.84147C24.84 6.15254 25.6449 6.3126 26.4578 6.3125H28.875C29.422 6.3125 29.9466 6.5298 30.3334 6.91659C30.7202 7.30339 30.9375 7.82799 30.9375 8.375V20.75ZM4.125 4.25C3.03098 4.25 1.98177 4.6846 1.20818 5.45818C0.434597 6.23177 0 7.28098 0 8.375L0 20.75C0 21.844 0.434597 22.8932 1.20818 23.6668C1.98177 24.4404 3.03098 24.875 4.125 24.875H28.875C29.969 24.875 31.0182 24.4404 31.7918 23.6668C32.5654 22.8932 33 21.844 33 20.75V8.375C33 7.28098 32.5654 6.23177 31.7918 5.45818C31.0182 4.6846 29.969 4.25 28.875 4.25H26.4578C25.3638 4.24977 24.3148 3.81502 23.5414 3.04138L21.8336 1.33362C21.0602 0.559984 20.0112 0.125234 18.9172 0.125H14.0828C12.9888 0.125234 11.9398 0.559984 11.1664 1.33362L9.45862 3.04138C8.68522 3.81502 7.63618 4.24977 6.54225 4.25H4.125Z" fill="#464E5F"/>
<path d="M16.5 18.6875C15.1325 18.6875 13.821 18.1443 12.854 17.1773C11.887 16.2103 11.3438 14.8988 11.3438 13.5312C11.3438 12.1637 11.887 10.8522 12.854 9.88523C13.821 8.91825 15.1325 8.375 16.5 8.375C17.8675 8.375 19.179 8.91825 20.146 9.88523C21.113 10.8522 21.6562 12.1637 21.6562 13.5312C21.6562 14.8988 21.113 16.2103 20.146 17.1773C19.179 18.1443 17.8675 18.6875 16.5 18.6875ZM16.5 20.75C18.4145 20.75 20.2506 19.9895 21.6044 18.6357C22.9582 17.2819 23.7188 15.4458 23.7188 13.5312C23.7188 11.6167 22.9582 9.7806 21.6044 8.42682C20.2506 7.07305 18.4145 6.3125 16.5 6.3125C14.5855 6.3125 12.7494 7.07305 11.3956 8.42682C10.0418 9.7806 9.28125 11.6167 9.28125 13.5312C9.28125 15.4458 10.0418 17.2819 11.3956 18.6357C12.7494 19.9895 14.5855 20.75 16.5 20.75ZM6.1875 9.40625C6.1875 9.67975 6.07885 9.94206 5.88545 10.1355C5.69206 10.3289 5.42975 10.4375 5.15625 10.4375C4.88275 10.4375 4.62044 10.3289 4.42705 10.1355C4.23365 9.94206 4.125 9.67975 4.125 9.40625C4.125 9.13275 4.23365 8.87044 4.42705 8.67705C4.62044 8.48365 4.88275 8.375 5.15625 8.375C5.42975 8.375 5.69206 8.48365 5.88545 8.67705C6.07885 8.87044 6.1875 9.13275 6.1875 9.40625Z" fill="#464E5F"/>
</svg>
