<svg width="40" height="28" viewBox="0 0 40 28" fill="none" xmlns="http://www.w3.org/2000/svg">
<path d="M10.7454 1.43635C9.04544 5.63634 8.02044 9.21134 7.67044 12.1613C10.2704 12.0613 12.3704 12.6863 13.9704 14.0363C15.6204 15.3363 16.4454 17.0613 16.4454 19.2113C16.4454 21.5613 15.6954 23.5113 14.1954 25.0614C12.7454 26.5613 10.9204 27.3113 8.72044 27.3113C6.62044 27.3113 4.79544 26.5363 3.24544 24.9863C1.74544 23.4363 0.995435 21.5113 0.995435 19.2113C0.995435 18.0613 1.17044 16.8863 1.52044 15.6864C1.87043 14.4363 2.59544 12.6363 3.69544 10.2863C4.84544 7.93634 6.62044 4.63634 9.02044 0.38635L10.7454 1.43635ZM34.2954 1.43635C32.5954 5.63634 31.5704 9.21134 31.2204 12.1613C33.8204 12.0613 35.9204 12.6863 37.5204 14.0363C39.1704 15.3363 39.9954 17.0613 39.9954 19.2113C39.9954 21.5613 39.2454 23.5113 37.7454 25.0614C36.2954 26.5613 34.4704 27.3113 32.2704 27.3113C30.1704 27.3113 28.3454 26.5363 26.7954 24.9863C25.2954 23.4363 24.5454 21.5113 24.5454 19.2113C24.5454 18.0613 24.7204 16.8863 25.0704 15.6864C25.4204 14.4363 26.1454 12.6363 27.2454 10.2863C28.3954 7.93634 30.1704 4.63634 32.5704 0.38635L34.2954 1.43635Z" fill="#C9AC8C"/>
</svg>
