<svg width="18" height="18" viewBox="0 0 18 18" fill="none" xmlns="http://www.w3.org/2000/svg">
<path d="M0.168945 9C0.168945 10.654 1.51495 12 3.16895 12C3.96295 12 4.68094 11.685 5.21795 11.18L11.2089 14.604C11.1909 14.734 11.1689 14.864 11.1689 15C11.1689 16.654 12.5149 18 14.1689 18C15.8229 18 17.1689 16.654 17.1689 15C17.1689 13.346 15.8229 12 14.1689 12C13.3749 12 12.6569 12.315 12.1199 12.82L6.12895 9.397C6.14695 9.266 6.16895 9.136 6.16895 9C6.16895 8.864 6.14695 8.734 6.12895 8.603L12.1199 5.18C12.6569 5.685 13.3749 6 14.1689 6C15.8229 6 17.1689 4.654 17.1689 3C17.1689 1.346 15.8229 0 14.1689 0C12.5149 0 11.1689 1.346 11.1689 3C11.1689 3.136 11.1909 3.266 11.2089 3.397L5.21795 6.82C4.68094 6.315 3.96295 6 3.16895 6C1.51495 6 0.168945 7.346 0.168945 9Z" fill="white"/>
</svg>
